<svg version="1.1" id="Capa_1" xmlns="http://www.w3.org/2000/svg" x="0" y="0" viewBox="0 0 190 129.6" xml:space="preserve" enable-background="new 0 0 190 129.6"><style>.st0{fill-rule:evenodd;clip-rule:evenodd;fill:#fff}</style><g id="Artboard" transform="translate(-473 -124)"><g id="Group-27-Copy" transform="translate(473 124)"><path id="Fill-1" class="st0" d="M18.7 117.6c0 .6-.3 1.3-.8 1.9-.8 1.3-2.1 2.3-3.8 3.1-1.7.8-3.6 1.1-5.6 1.1-1 0-1.9-.2-2.7-.5-.8-.3-1.6-.8-2.2-1.4-.6-.6-1.1-1.3-1.4-2-.4-.8-.5-1.6-.5-2.5 0-1.8.8-3.3 2.5-4.4 1.6-1.1 3.8-1.6 6.5-1.6 2.9 0 5.6.5 8.1 1.5v4.8zm1.7 4.5v-13.2c0-3-.9-5.4-2.6-7.2-1.7-1.8-4-2.6-7-2.6-2.7 0-5.7 1.1-9 3.3l.8 1.2c1.4-1 2.8-1.8 4.2-2.3 1.4-.5 2.7-.8 3.9-.8 2.4 0 4.4.8 5.8 2.3 1.4 1.5 2.2 3.5 2.2 6.1v2.7c-1.1-.5-2.4-.8-3.9-1-1.5-.2-2.9-.3-4.3-.3-1.6 0-3 .2-4.3.5-1.3.4-2.4.9-3.3 1.5-.9.6-1.7 1.4-2.2 2.3-.5.9-.8 1.9-.8 2.9 0 1.1.2 2.1.6 3.1.4.9 1 1.8 1.8 2.5.7.7 1.6 1.2 2.6 1.7 1 .4 2.1.6 3.3.6 2.1 0 4.2-.4 6-1.2 1.9-.8 3.4-2 4.5-3.5v2.2c0 .6.2 1.1.6 1.5.4.4.9.6 1.4.6h.4v-1.6c-.4-.3-.7-.6-.7-1.3z"/><path id="Fill-3" class="st0" d="M48.4 122.1V99.4h-1.7v16.1c-.4 1.2-.9 2.3-1.6 3.3-.7 1-1.5 1.9-2.4 2.6-.9.7-1.9 1.3-3 1.7-1.1.4-2.2.6-3.4.6-4.6 0-6.8-3.3-6.8-10V99.4h-1.7v14.4c0 3.8.7 6.6 2 8.5 1.4 1.9 3.4 2.9 6.1 2.9 2.3 0 4.4-.6 6.3-1.8 2-1.2 3.5-2.8 4.6-4.9v4.2c0 .5.2 1 .6 1.4.4.5.8.7 1.4.7h.5v-1.6c-.6-.1-.9-.4-.9-1.1"/><path id="Fill-5" class="st0" d="M61.6 103.2c1.7-1.4 3.8-2.1 6.1-2.2v-1.6h-1.6c-1.7.2-3.2.9-4.7 2s-2.6 2.6-3.5 4.4v-6.4h-1.6v25.3H58v-15.9c.7-2.4 1.9-4.3 3.6-5.6"/><path id="Fill-7" class="st0" d="M73.6 107c.6-1.3 1.3-2.5 2.3-3.5.9-1 2-1.7 3.3-2.3 1.2-.6 2.6-.8 4-.8s2.8.3 4 .8c1.2.5 2.3 1.3 3.3 2.3 1 1 1.7 2.1 2.3 3.5.6 1.3.9 2.8 1 4.4H72.6c0-1.6.4-3 1-4.4m19.9 12l-1.5-.4c-.4.7-.8 1.4-1.4 2.1-.6.6-1.3 1.2-2 1.6-.8.5-1.6.8-2.5 1-.9.2-1.8.4-2.8.4-1.4 0-2.7-.3-3.9-.9-1.2-.6-2.3-1.3-3.3-2.3-1-1-1.7-2.1-2.4-3.5-.6-1.3-1-2.8-1.1-4.4h22.7v-.7c0-1.8-.3-3.5-1-5.1-.7-1.6-1.5-3-2.6-4.2-1.1-1.2-2.4-2.1-3.9-2.8-1.5-.7-3.1-1-4.8-1-1.7 0-3.3.3-4.8 1s-2.7 1.6-3.9 2.8c-1.1 1.2-2 2.5-2.6 4.1-.6 1.6-.9 3.2-.9 5 0 1.8.3 3.5 1 5.1.6 1.6 1.5 3 2.6 4.2 1.1 1.2 2.4 2.2 3.9 2.9 1.5.7 3.1 1 4.8 1 1.1 0 2.2-.2 3.3-.5 1.1-.3 2.1-.7 3-1.3.9-.5 1.7-1.2 2.4-1.9.8-.5 1.4-1.3 1.7-2.2"/><path id="Fill-9" class="st0" d="M121.1 116.5c-.6 1.4-1.3 2.6-2.3 3.7-1 1-2.1 1.9-3.4 2.5-1 .5-2.1.8-3.2.9v-23c1.1.1 2.2.4 3.2.9 1.3.6 2.4 1.4 3.3 2.5 1 1 1.7 2.3 2.3 3.7.6 1.4.9 2.9.9 4.5 0 1.4-.2 2.9-.8 4.3zm-10.1 7.1c-1.3 0-2.6-.3-3.7-.9-1.3-.6-2.4-1.4-3.3-2.5-.9-1-1.7-2.3-2.2-3.6-.6-1.4-.8-2.9-.8-4.4 0-1.6.3-3.1.9-4.5.6-1.4 1.3-2.6 2.3-3.7 1-1.1 2.1-1.9 3.3-2.5 1.2-.6 2.4-.9 3.7-.9v23zm12.7-11.5c0-1.8-.3-3.5-1-5.1-.6-1.6-1.5-3-2.6-4.2-1.1-1.2-2.4-2.1-3.9-2.8-1.2-.6-2.6-.9-3.9-1v-6H111v6c-1.5 0-3 .4-4.4 1-1.5.7-2.8 1.6-3.9 2.8-1.1 1.2-2 2.6-2.6 4.2-.6 1.6-1 3.3-1 5.1 0 1.8.3 3.4.9 5 .6 1.6 1.5 3 2.6 4.2 1.1 1.2 2.4 2.1 3.9 2.8 1.4.6 2.8 1 4.4 1v4.4h1.2v-4.4c1.4-.1 2.7-.4 3.9-1 1.5-.7 2.8-1.6 3.9-2.8 1.1-1.2 2-2.6 2.6-4.2.8-1.5 1.2-3.2 1.2-5z"/><path id="Fill-11" class="st0" d="M135.6 123.9c-.5.1-.9.1-1.3.1-1 0-1.8-.3-2.3-.8-.6-.6-.9-1.3-.9-2.2V89.2h-1V121c0 1.2.4 2.2 1.1 2.9.7.7 1.6 1.1 2.8 1.1.5 0 1-.1 1.7-.2s1.2-.3 1.7-.4l-.3-.8c-.6.1-1 .2-1.5.3"/><path id="Fill-13" class="st0" d="M157.5 117.7c0 .6-.2 1.3-.7 2-.9 1.4-2.2 2.4-4 3.3-1.8.8-3.8 1.2-6 1.2-1 0-2-.2-2.8-.5-.9-.3-1.6-.8-2.3-1.4-.7-.6-1.2-1.3-1.5-2.2-.4-.8-.6-1.7-.6-2.7 0-.9.2-1.8.7-2.6.5-.8 1.1-1.4 1.9-2 .8-.6 1.8-1 3-1.3 1.2-.3 2.4-.4 3.9-.4 3.1 0 5.9.5 8.5 1.5v5.1zm1 5v-14c0-1.5-.2-2.8-.7-4-.4-1.2-1.1-2.2-1.9-3.1-.8-.8-1.8-1.5-2.9-1.9-1.2-.5-2.4-.7-3.8-.7-2.6 0-5.5 1.1-8.8 3.3l.6.8c1.4-1 2.8-1.8 4.2-2.3 1.4-.5 2.7-.8 3.9-.8 1.2 0 2.4.2 3.4.6 1 .4 1.9 1 2.6 1.8.7.8 1.3 1.7 1.7 2.8.4 1.1.6 2.3.6 3.6v2.9c-1.2-.5-2.6-.8-4-1-1.5-.2-3-.4-4.4-.4-1.5 0-2.9.2-4.2.5-1.3.4-2.4.9-3.3 1.5-.9.6-1.6 1.4-2.1 2.3-.5.9-.8 1.8-.8 2.9s.2 2.1.6 3c.4.9 1 1.8 1.7 2.5s1.6 1.2 2.6 1.7c1 .4 2.1.6 3.2.6 2.2 0 4.3-.4 6.1-1.2 1.9-.8 3.4-2 4.6-3.5v2.3c0 .4.1.8.3 1.1.2.3.5.6.8.7.1.1.3.1.7.1v-1c-.4-.1-.7-.4-.7-1.1z"/><path id="Fill-15" class="st0" d="M187.7 116.5c-.6 1.4-1.3 2.7-2.3 3.9-1 1.1-2.2 2.1-3.6 2.7-1.4.7-2.9 1-4.5 1-1 0-2-.2-3.2-.6-1.1-.4-2.2-1-3.2-1.7s-1.8-1.5-2.5-2.4c-.7-.9-1-1.9-1.1-2.9v-9.2c.5-1 1.1-1.9 1.8-2.8.7-.9 1.5-1.7 2.3-2.3.9-.7 1.8-1.2 2.9-1.6 1.1-.4 2.2-.6 3.4-.6 1.6 0 3 .3 4.4 1 1.3.7 2.5 1.6 3.4 2.7 1 1.1 1.7 2.4 2.2 3.9.5 1.5.8 3 .8 4.5s-.3 3-.8 4.4m1-9c-.5-1.6-1.3-3-2.3-4.2-1-1.2-2.2-2.3-3.7-3-1.5-.8-3.1-1.2-5-1.2-2.2 0-4.2.6-5.9 1.8-1.7 1.2-3.2 2.7-4.5 4.5V89.2h-1v35.5h1v-5.3c.5.8 1.1 1.6 1.8 2.3.7.7 1.5 1.3 2.4 1.8.9.5 1.8.9 2.7 1.2 1 .3 1.9.4 2.9.4 1.7 0 3.3-.4 4.8-1.1 1.5-.7 2.8-1.7 3.9-2.9s2-2.6 2.6-4.2c.6-1.6.9-3.2.9-4.9.2-1.4-.1-3-.6-4.5"/><defs><filter id="Adobe_OpacityMaskFilter" filterUnits="userSpaceOnUse" x="42.4" y="0" width="111.5" height="73.6"><feColorMatrix values="1 0 0 0 0 0 1 0 0 0 0 0 1 0 0 0 0 0 1 0"/></filter></defs><mask maskUnits="userSpaceOnUse" x="42.4" y="0" width="111.5" height="73.6" id="mask-2_9_"><g filter="url(#Adobe_OpacityMaskFilter)"><path id="path-1_9_" class="st0" d="M0 152.6h189.5V0H0z"/></g></mask><path id="Fill-26" d="M45.7 9.2l70.5 7.2-16.6 54.4L45.7 9.2zm44.6-7.6L148 6l-30.9 9-67-6.9 40.2-6.5zm11.6 67l16-52.3 32.4-9.4-48.4 61.7zm52-63.8L90.3 0h-.1L42.4 7.8 100 73.6l53.9-68.8z" mask="url(#mask-2_9_)" fill-rule="evenodd" clip-rule="evenodd" fill="#fff"/></g></g></svg>