<svg xmlns="http://www.w3.org/2000/svg" viewBox="0 0 434.06 69.48"><g data-name="Layer 2"><path d="M152.71 52.8V32.48q0-7.68-4.33-12t-11.84-4.36q-7.18 0-15.2 5.44l1.53 2.72a32.6 32.6 0 016.92-3.68 18.32 18.32 0 016.43-1.28q5.78 0 9.12 3.48t3.37 9.4v4.08a33.87 33.87 0 00-6.13-1.64 38.66 38.66 0 00-6.75-.6 25.47 25.47 0 00-7 .92 17.75 17.75 0 00-5.49 2.56 12.32 12.32 0 00-3.55 3.88 9.76 9.76 0 00-1.29 5 12.51 12.51 0 001 5.08 12.26 12.26 0 002.92 4.08 14.38 14.38 0 004.37 2.72 14.08 14.08 0 005.36 1 23.56 23.56 0 009.68-2 18.66 18.66 0 007.35-5.76v3.44a4.62 4.62 0 001.12 2.6 3.29 3.29 0 002.57 1.08 7.27 7.27 0 00.75 0q.45 0 .84-.12V54.8c-1.17 0-1.75-.67-1.75-2zm-4-6.4a5.34 5.34 0 01-1.29 3.2 14.46 14.46 0 01-6 4.64A20.38 20.38 0 01133 56a11.4 11.4 0 01-4.2-.76 10.77 10.77 0 01-3.41-2.08 9.12 9.12 0 01-2.28-3.16 9.62 9.62 0 01-.81-3.92 7.49 7.49 0 011-3.8 8.72 8.72 0 012.85-2.92 15 15 0 014.39-1.88 22.34 22.34 0 015.68-.68 37.14 37.14 0 016.49.56 31.71 31.71 0 016 1.68zm50.39 6.4v-36h-4V43a19.91 19.91 0 01-2.6 5.12 17.69 17.69 0 01-3.8 4 17.88 17.88 0 01-4.64 2.56 14.67 14.67 0 01-5.12.92q-10.47 0-10.48-15.36V16.8h-4v24q0 18.41 13.28 18.4a20 20 0 0017.76-10.64v6.24a3.29 3.29 0 001.24 2.68 4.4 4.4 0 002.84 1h.48a3.86 3.86 0 00.72-.08v-3.6c-1.12 0-1.68-.67-1.68-2zM229 16.72a14.7 14.7 0 00-7.64 3.16 20.15 20.15 0 00-5.7 7.12V16.8h-3.84v41.6h4v-26a16.34 16.34 0 0115.68-12v-3.76h-1c-.5 0-.94.03-1.5.08zm40.1 5.72a20.21 20.21 0 00-6.48-4.64 20.15 20.15 0 00-16.2 0 19.91 19.91 0 00-6.44 4.6 22 22 0 00-5.84 15.08A22.43 22.43 0 00240 52.76a20.28 20.28 0 006.52 4.72 19.35 19.35 0 008.16 1.72 20.56 20.56 0 005.6-.76 20.34 20.34 0 005-2.12 17.64 17.64 0 004-3.24A13.08 13.08 0 00271.9 49l-3.52-1a11.69 11.69 0 01-2.2 3.24 13.81 13.81 0 01-3.2 2.52 17.4 17.4 0 01-3.88 1.64 15.39 15.39 0 01-10.4-.68 16.42 16.42 0 01-5.08-3.52 19.13 19.13 0 01-3.62-5.32 18.52 18.52 0 01-1.68-6.68h36.48a2 2 0 00.08-.76v-1a22.16 22.16 0 00-1.52-8.2 21.05 21.05 0 00-4.26-6.8zM238.22 36a20.23 20.23 0 011.56-6.68A16.83 16.83 0 01243.3 24a16.19 16.19 0 015.08-3.44 15.92 15.92 0 0112.32 0 16.07 16.07 0 015.08 3.44 17.81 17.81 0 013.6 5.24A18.75 18.75 0 01271 36zm77.32-13.52a20.75 20.75 0 00-6.44-4.68 18.3 18.3 0 00-5.94-1.62V6h-3.82v10.17a18.67 18.67 0 00-6.28 1.63 20.29 20.29 0 00-6.44 4.68 22.45 22.45 0 00-5.84 15.2 22.65 22.65 0 001.52 8.24 21.78 21.78 0 004.24 6.88 20.29 20.29 0 006.46 4.68 18.64 18.64 0 006.36 1.63v10.37h3.82V59.09a18.4 18.4 0 006-1.61 20.18 20.18 0 006.44-4.68 22.45 22.45 0 005.84-15.12 22.29 22.29 0 00-1.56-8.32 21.8 21.8 0 00-4.36-6.88zM294.7 54.2a16.53 16.53 0 01-5.16-3.8 18.34 18.34 0 01-3.48-5.64 19.28 19.28 0 010-13.92 19.65 19.65 0 013.52-5.8 16.59 16.59 0 015.16-3.92 14.07 14.07 0 014.56-1.33v35.72a14.49 14.49 0 01-4.6-1.31zm21.36-9.6a18.47 18.47 0 01-3.52 5.72 16.29 16.29 0 01-5.2 3.88 14.17 14.17 0 01-4.18 1.23V19.84a13.76 13.76 0 014.22 1.28 17.26 17.26 0 015.16 3.88 18 18 0 013.52 5.68 18.54 18.54 0 011.28 6.92 18.73 18.73 0 01-1.28 7zM342.5 55a14.05 14.05 0 01-2.12.2 4.82 4.82 0 01-3.64-1.36 5.06 5.06 0 01-1.32-3.68V0h-4.08v51.36a7.41 7.41 0 002 5.48 7.3 7.3 0 005.4 2 19.81 19.81 0 003.44-.36 17.06 17.06 0 003.36-.92l-.8-3.2a10.86 10.86 0 01-2.24.64zm40.04-2.2V32.48q0-7.68-4.32-12t-11.84-4.36q-7.2 0-15.2 5.44l1.52 2.72a32.85 32.85 0 016.92-3.68 18.37 18.37 0 016.44-1.28 12.09 12.09 0 019.12 3.48q3.36 3.48 3.36 9.4v4.08a33.53 33.53 0 00-6.12-1.64 38.86 38.86 0 00-6.76-.6 25.53 25.53 0 00-7 .92 17.69 17.69 0 00-5.48 2.56 12.23 12.23 0 00-3.56 3.88 9.85 9.85 0 00-1.28 5 12.51 12.51 0 001 5.08 12.12 12.12 0 002.92 4.08 14.34 14.34 0 004.36 2.72 14.12 14.12 0 005.36 1 23.53 23.53 0 009.68-2 18.62 18.62 0 007.34-5.84v3.44a4.55 4.55 0 001.12 2.6 3.25 3.25 0 002.56 1.08 7.45 7.45 0 00.76 0q.44 0 .84-.12V54.8c-1.15 0-1.74-.67-1.74-2zm-4-6.4a5.39 5.39 0 01-1.28 3.2 14.53 14.53 0 01-6 4.64 20.46 20.46 0 01-8.48 1.76 11.47 11.47 0 01-4.2-.76 10.72 10.72 0 01-3.4-2.08 9.14 9.14 0 01-2.24-3.16 9.78 9.78 0 01-.8-3.92 7.39 7.39 0 011-3.8 8.68 8.68 0 012.86-2.92 15 15 0 014.4-1.88 22.28 22.28 0 015.68-.68 36.94 36.94 0 016.48.56 31.71 31.71 0 016 1.68zm54.2-16.52a22.93 22.93 0 00-3.76-7 18.77 18.77 0 00-6-5 16.82 16.82 0 00-8-1.88 16.31 16.31 0 00-9.32 2.72 26.2 26.2 0 00-7 7V0h-4v58.4h3.68v-8.32a19.05 19.05 0 006.66 6.56 17.32 17.32 0 009.12 2.56 17.91 17.91 0 007.88-1.76 20.65 20.65 0 006.32-4.68 21.48 21.48 0 004.2-6.8 22.36 22.36 0 001.52-8.2 24.31 24.31 0 00-1.3-7.88zm-4 14.44A19.18 19.18 0 01425.3 50a16.89 16.89 0 01-5.24 4 14.88 14.88 0 01-6.72 1.52 13.82 13.82 0 01-4.64-.88 19.23 19.23 0 01-4.6-2.36 15.81 15.81 0 01-3.64-3.52 8.73 8.73 0 01-1.76-4.36V30.72a22.65 22.65 0 012.6-4.16 19.88 19.88 0 013.52-3.56 17.44 17.44 0 014.28-2.44 13.41 13.41 0 015-.92 13.78 13.78 0 016.44 1.52 16.32 16.32 0 015 4 18.6 18.6 0 013.28 5.84 20 20 0 011.18 6.76 17.93 17.93 0 01-1.26 6.56zM0 11.14L46.16 64 89.27 8.72 38.54 4.85zm7.13 3.12l50 5.14-11.8 38.66zm43.06 39.13l10.38-34.1 21.08-6.16zM77 11.08l-17.89 5.21L16 11.86l22.7-3.7z" fill="#fff" data-name="Layer 1"/></g></svg>