<svg xmlns="http://www.w3.org/2000/svg" viewBox="0 0 315.59 200.1"><g data-name="Layer 2"><path d="M34.24 183.42V163.1q0-7.68-4.32-12t-11.84-4.4q-7.2 0-15.2 5.44l1.52 2.72a32.85 32.85 0 016.92-3.68 18.37 18.37 0 016.44-1.28 12.09 12.09 0 019.12 3.48q3.36 3.48 3.36 9.4v4.08a33.53 33.53 0 00-6.12-1.64 38.86 38.86 0 00-6.76-.6 25.53 25.53 0 00-7 .92 17.69 17.69 0 00-5.48 2.56 12.23 12.23 0 00-3.6 3.9A9.85 9.85 0 000 177a12.51 12.51 0 001 5 12.12 12.12 0 003 4.1 14.34 14.34 0 004.36 2.72 14.12 14.12 0 005.36 1 23.53 23.53 0 009.68-2 18.62 18.62 0 007.36-5.76v3.44a4.55 4.55 0 001.12 2.6 3.25 3.25 0 002.56 1.08 7.45 7.45 0 00.76 0q.44 0 .84-.12v-3.6c-1.21-.04-1.8-.71-1.8-2.04zm-4-6.4a5.39 5.39 0 01-1.28 3.2 14.53 14.53 0 01-6 4.64 20.46 20.46 0 01-8.52 1.76 11.47 11.47 0 01-4.2-.76 10.72 10.72 0 01-3.4-2.08 9.14 9.14 0 01-2.24-3.16 9.78 9.78 0 01-.8-3.92 7.39 7.39 0 011-3.8 8.68 8.68 0 012.88-2.9 15 15 0 014.4-1.88 22.28 22.28 0 015.68-.68 36.94 36.94 0 016.48.56 31.71 31.71 0 016 1.68zm50.4 6.4v-36h-4v26.24a20.23 20.23 0 01-2.6 5.12 17.69 17.69 0 01-3.8 4 18 18 0 01-4.64 2.56 14.67 14.67 0 01-5.12.92Q50 186.22 50 170.86v-23.44h-4v24q0 18.41 13.28 18.4A20 20 0 0077 179.18v6.24a3.26 3.26 0 001.24 2.68 4.38 4.38 0 002.84 1h.48a4.05 4.05 0 00.72-.08v-3.6c-1.08 0-1.64-.67-1.64-2zm29.92-36.08a14.67 14.67 0 00-7.64 3.16 20 20 0 00-5.72 7.16v-10.24h-3.84V189h4v-26A16.34 16.34 0 01113 151v-3.76h-1c-.43.02-.91.05-1.44.1zm40.08 5.72a20.32 20.32 0 00-6.48-4.64 20.15 20.15 0 00-16.2 0 19.81 19.81 0 00-6.44 4.6 22 22 0 00-5.84 15.08 22.43 22.43 0 005.88 15.32 20.17 20.17 0 006.52 4.72 19.44 19.44 0 008.16 1.72 20.88 20.88 0 0010.6-2.88 17.86 17.86 0 004-3.24 13.45 13.45 0 002.6-4.12l-3.52-1a12.14 12.14 0 01-2.2 3.24 14 14 0 01-3.2 2.52 17.6 17.6 0 01-3.88 1.64 15.24 15.24 0 01-4.24.6 15 15 0 01-6.16-1.28 16.3 16.3 0 01-5.08-3.52 18.92 18.92 0 01-3.64-5.32 18.52 18.52 0 01-1.68-6.68h36.48a2.26 2.26 0 00.08-.76v-1a22.36 22.36 0 00-1.52-8.2 21.4 21.4 0 00-4.24-6.8zm-30.88 13.56a20.23 20.23 0 011.56-6.68 16.66 16.66 0 013.52-5.28 16.07 16.07 0 015.08-3.44 15.92 15.92 0 0112.32 0 16.19 16.19 0 015.08 3.44 18.2 18.2 0 013.6 5.24 19 19 0 011.64 6.72zm77.32-13.52a20.86 20.86 0 00-6.44-4.68 18.43 18.43 0 00-5.94-1.62v-10.22h-3.82v10.21a18.55 18.55 0 00-6.28 1.63 20.18 20.18 0 00-6.44 4.68 22.06 22.06 0 00-4.28 6.88 23 23 0 000 16.56 21.42 21.42 0 004.24 6.88 20.18 20.18 0 006.44 4.68 18.59 18.59 0 006.36 1.63v10.37h3.82v-10.39a18.47 18.47 0 006-1.61 20.29 20.29 0 006.44-4.68A22.65 22.65 0 00201.4 160a21.8 21.8 0 00-4.32-6.9zm-20.84 31.72a16.3 16.3 0 01-5.16-3.8 18 18 0 01-3.48-5.64 18.54 18.54 0 01-1.28-6.92 18.77 18.77 0 011.32-7 19.44 19.44 0 013.52-5.8 16.36 16.36 0 015.16-3.92 13.83 13.83 0 014.56-1.33v35.72a14.42 14.42 0 01-4.64-1.31zm21.36-9.6a18.85 18.85 0 01-3.52 5.72 16.51 16.51 0 01-5.2 3.88 14.26 14.26 0 01-4.18 1.23v-35.59a13.93 13.93 0 014.22 1.28 17.52 17.52 0 015.16 3.88 18.42 18.42 0 013.52 5.68 18.74 18.74 0 011.28 6.92 18.93 18.93 0 01-1.28 7zm26.4 10.4a14.17 14.17 0 01-2.12.2 4.82 4.82 0 01-3.64-1.36 5.06 5.06 0 01-1.32-3.68v-50.16h-4.08V182a7.41 7.41 0 002 5.48 7.3 7.3 0 005.4 2 19.91 19.91 0 003.44-.36 17.06 17.06 0 003.36-.92l-.8-3.2a11.19 11.19 0 01-2.24.62zm40.08-2.2V163.1q0-7.68-4.32-12t-11.84-4.36q-7.2 0-15.2 5.44l1.52 2.72a32.6 32.6 0 016.92-3.68 18.33 18.33 0 016.44-1.28 12.09 12.09 0 019.12 3.48q3.36 3.48 3.36 9.4v4.08a34 34 0 00-6.12-1.64 38.86 38.86 0 00-6.76-.6 25.53 25.53 0 00-7 .92 17.59 17.59 0 00-5.48 2.56 12.23 12.23 0 00-3.56 3.88 9.75 9.75 0 00-1.28 5 12.35 12.35 0 001 5.08 12 12 0 002.92 4.08 14.27 14.27 0 009.72 3.72 23.56 23.56 0 009.68-2 18.69 18.69 0 007.36-5.76v3.44a4.49 4.49 0 001.12 2.6 3.25 3.25 0 002.56 1.08 7.6 7.6 0 00.76 0q.44 0 .84-.12v-3.6c-1.18-.12-1.76-.79-1.76-2.12zm-4-6.4a5.39 5.39 0 01-1.28 3.2 14.59 14.59 0 01-6 4.64 20.46 20.46 0 01-8.52 1.76 11.4 11.4 0 01-4.2-.76 10.72 10.72 0 01-3.4-2.08 9.14 9.14 0 01-2.24-3.16 9.61 9.61 0 01-.8-3.92 7.39 7.39 0 011-3.8 8.59 8.59 0 012.84-2.92 14.9 14.9 0 014.4-1.88 22.22 22.22 0 015.68-.68 36.94 36.94 0 016.48.56 31.71 31.71 0 016 1.68zm54.2-16.52a23 23 0 00-3.77-7 18.56 18.56 0 00-6-5 16.79 16.79 0 00-8-1.88 16.3 16.3 0 00-9.31 2.72 26.06 26.06 0 00-7 7v-25.72h-4V189h3.68v-8.3a19 19 0 006.63 6.56 17.32 17.32 0 009.12 2.56 17.88 17.88 0 007.88-1.76 20.69 20.69 0 006.33-4.68 21.84 21.84 0 004.2-6.8 22.35 22.35 0 001.51-8.2 24.3 24.3 0 00-1.27-7.88zm-4 14.44a19.2 19.2 0 01-3.45 5.72 16.77 16.77 0 01-5.24 4 14.8 14.8 0 01-6.71 1.52 13.82 13.82 0 01-4.64-.88 19.3 19.3 0 01-4.61-2.36 15.77 15.77 0 01-3.63-3.52 8.64 8.64 0 01-1.76-4.36v-13.72a22.59 22.59 0 012.59-4.16 20.27 20.27 0 013.53-3.52 17.37 17.37 0 014.27-2.44 13.41 13.41 0 015-.92 13.82 13.82 0 016.45 1.52 16.56 16.56 0 015 4 18.8 18.8 0 013.28 5.76 20 20 0 011.15 6.76 18.13 18.13 0 01-1.23 6.6zM145.37 0L77.18 11.12l81.94 93.79 76.49-98zM97.53 12l48-7.83 74.51 5.68-37.33 10.9zm87.05 12.54L226 12.45l-61.8 79.09zM86.16 15l94.05 9.66-22.16 72.77z" data-name="Layer 1"/></g></svg>