<?xml version="1.0" encoding="UTF-8"?>
<svg width="190px" height="153px" viewBox="0 0 190 153" version="1.1" xmlns="http://www.w3.org/2000/svg" xmlns:xlink="http://www.w3.org/1999/xlink">
    <!-- Generator: Sketch 55.2 (78181) - https://sketchapp.com -->
    <title>Group 27 Copy</title>
    <desc>Created with Sketch.</desc>
    <defs>
        <polygon id="path-1" points="0 152.619668 189.475327 152.619668 189.475327 0 0 0"></polygon>
    </defs>
    <g id="Page-1" stroke="none" stroke-width="1" fill="none" fill-rule="evenodd">
        <g id="Artboard" transform="translate(-473.000000, -124.000000)">
            <g id="Group-27-Copy" transform="translate(473.000000, 124.000000)">
                <path d="M18.7232582,117.581739 C18.7232582,118.198075 18.4624739,118.846621 17.9433889,119.527379 C17.0970817,120.824472 15.8297941,121.854589 14.1390425,122.615872 C12.4489118,123.378395 10.5799575,123.759346 8.53280065,123.759346 C7.55796405,123.759346 6.6470817,123.597674 5.80139542,123.273091 C4.95633007,122.949128 4.23358497,122.494464 3.6319183,121.910338 C3.03087255,121.327451 2.55152614,120.646075 2.19387908,119.867447 C1.83623203,119.090059 1.65802941,118.246391 1.65802941,117.338302 C1.65802941,115.522743 2.47763725,114.07203 4.1193366,112.984925 C5.76041503,111.898439 7.92989216,111.355196 10.6296307,111.355196 C13.5218529,111.355196 16.2203497,111.841451 18.7232582,112.814581 L18.7232582,117.581739 Z M20.3811013,122.057144 L20.3811013,108.826051 C20.3811013,105.77782 19.5273431,103.377516 17.8210686,101.626998 C16.1147941,99.8752409 13.7813954,99.0006012 10.8233562,99.0006012 C8.09381373,99.0006012 5.08610131,100.102573 1.80332353,102.307755 L2.58443464,103.524322 C4.01440196,102.519601 5.41953268,101.748407 6.80106863,101.213217 C8.18198366,100.678646 9.49087255,100.410431 10.7264935,100.410431 C13.1642059,100.410431 15.107049,101.164901 16.553781,102.672601 C17.9992712,104.180302 18.7232582,106.199034 18.7232582,108.7288 L18.7232582,111.452447 C17.5845,110.999022 16.2855458,110.658334 14.822049,110.431002 C13.3591732,110.204909 11.928585,110.090314 10.5315261,110.090314 C8.97178758,110.090314 7.54927124,110.26933 6.26521895,110.626123 C4.98054575,110.982917 3.87593791,111.485277 2.94953268,112.133824 C2.02312745,112.78299 1.29914052,113.552326 0.780055556,114.44431 C0.259728758,115.336294 0.00018627451,116.316856 0.00018627451,117.387237 C0.00018627451,118.489828 0.211297386,119.511273 0.632898693,120.451573 C1.05512092,121.392492 1.64064379,122.211383 2.38884641,122.908245 C3.13580719,123.605727 4.01440196,124.156403 5.02214706,124.562132 C6.02865033,124.967241 7.11897712,125.169796 8.28878105,125.169796 C10.4340425,125.169796 12.4414608,124.756634 14.310415,123.92969 C16.1787484,123.102747 17.6826046,121.927682 18.8201209,120.403257 L18.8201209,122.64065 C18.8201209,123.224156 19.0225392,123.719083 19.4304804,124.124192 C19.8365588,124.529921 20.3152843,124.731856 20.8685196,124.731856 C21.0311993,124.731856 21.1609706,124.715751 21.2590752,124.68354 L21.2590752,123.126905 C20.6735523,123.126905 20.3811013,122.770731 20.3811013,122.057144 L20.3811013,122.057144 Z" id="Fill-1" fill="#FFFFFF"></path>
                <path d="M48.416781,122.056896 L48.416781,99.3887381 L46.7589379,99.3887381 L46.7589379,115.441349 C46.3696242,116.641811 45.8238399,117.744402 45.1253105,118.749123 C44.426781,119.754463 43.6146242,120.614236 42.687598,121.327204 C41.7611928,122.040791 40.7453758,122.600139 39.6401471,123.005248 C38.5355392,123.411596 37.4135458,123.613532 36.2760294,123.613532 C31.7247222,123.613532 29.4496895,120.273548 29.4496895,113.592961 L29.4496895,99.3887381 L27.7918464,99.3887381 L27.7918464,113.787463 C27.7918464,117.5499 28.4748529,120.386904 29.8402451,122.300333 C31.2043954,124.213762 33.2360294,125.169548 35.9339052,125.169548 C38.2095588,125.169548 40.3231536,124.570556 42.2728268,123.370094 C44.2231209,122.170872 45.7511928,120.53309 46.8570425,118.45675 L46.8570425,122.640402 C46.8570425,123.127277 47.0439379,123.597426 47.4177288,124.051471 C47.7908987,124.505515 48.2541013,124.731609 48.8073366,124.731609 L49.0265196,124.731609 C49.1066176,124.731609 49.1978922,124.715503 49.2947549,124.683293 L49.2947549,123.127277 C48.709232,123.127277 48.416781,122.770483 48.416781,122.056896" id="Fill-3" fill="#FFFFFF"></path>
                <path d="M61.6306601,103.159352 C63.3524575,101.781113 65.3840915,101.043368 67.7243203,100.946117 L67.7243203,99.3888619 C67.5293529,99.3888619 67.302719,99.397534 67.0419346,99.4136393 C66.7823922,99.4297445 66.4886993,99.4377972 66.1652026,99.4377972 C64.5073595,99.6322992 62.9463791,100.29757 61.4841242,101.432372 C60.0212484,102.567793 58.8508235,104.026558 57.9728497,105.809906 L57.9728497,99.3888619 L56.3640588,99.3888619 L56.3640588,124.683417 L58.021902,124.683417 L58.021902,108.776991 C58.7042876,106.410757 59.9063791,104.53821 61.6306601,103.159352" id="Fill-5" fill="#FFFFFF"></path>
                <path d="M73.551732,107.025978 C74.1192484,105.696674 74.8761438,104.545148 75.8180719,103.572638 C76.7606209,102.599508 77.8497059,101.838225 79.0853268,101.28631 C80.3209477,100.735634 81.6528105,100.459366 83.0840196,100.459366 C84.513366,100.459366 85.8464706,100.726962 87.0820915,101.261532 C88.3164706,101.797342 89.4142484,102.550573 90.3735621,103.524322 C91.331634,104.496832 92.1040523,105.647739 92.6895752,106.977662 C93.2744771,108.307585 93.6159804,109.76697 93.7134641,111.355196 L72.5526797,111.355196 C72.6495425,109.79918 72.981732,108.355901 73.551732,107.025978 M93.5178758,119.040504 L92.0071895,118.652119 C91.6489216,119.398536 91.1776471,120.086727 90.5927451,120.718549 C90.0072222,121.351609 89.3242157,121.894852 88.5443464,122.348277 C87.765098,122.803561 86.9268627,123.151063 86.0346078,123.3945 C85.1392484,123.637318 84.2215359,123.759346 83.2789869,123.759346 C81.8806863,123.759346 80.5649673,123.476265 79.3293464,122.908245 C78.0931046,122.341464 76.9971895,121.570269 76.0378758,120.59714 C75.0785621,119.62463 74.29,118.46567 73.6728105,117.119642 C73.0556209,115.774233 72.6979739,114.322281 72.6011111,112.766265 L95.3228758,112.766265 C95.3228758,112.734055 95.3297059,112.620079 95.3470915,112.425577 C95.3626144,112.230455 95.3713072,112.101613 95.3713072,112.036573 C95.3713072,110.253225 95.0459477,108.566508 94.3958497,106.977662 C93.7445098,105.388816 92.8677778,104.002524 91.7631699,102.818787 C90.6573203,101.635051 89.3571242,100.702804 87.8619608,100.021427 C86.3667974,99.34067 84.7573856,99.0006012 83.0349673,99.0006012 C81.3119281,99.0006012 79.719902,99.34067 78.2570261,100.021427 C76.7935294,100.702804 75.5088562,101.626998 74.4042484,102.79401 C73.2996405,103.961642 72.4371895,105.323775 71.82,106.880411 C71.2028105,108.436427 70.8948366,110.107658 70.8948366,111.891006 C70.8948366,113.706565 71.2108824,115.41682 71.8454575,117.022391 C72.4781699,118.627342 73.3567647,120.038411 74.4781373,121.254358 C75.5988889,122.470306 76.9071569,123.42733 78.4023203,124.124192 C79.8981046,124.821055 81.5075163,125.169796 83.2305556,125.169796 C84.3680719,125.169796 85.4726797,125.015557 86.5462418,124.707698 C87.6179412,124.39984 88.6101634,123.978006 89.5198039,123.442816 C90.4294444,122.908245 91.2347712,122.259698 91.9333007,121.497176 C92.632451,120.735893 93.1602288,119.917002 93.5178758,119.040504" id="Fill-7" fill="#FFFFFF"></path>
                <path d="M121.09116,116.535826 C120.522402,117.946275 119.758676,119.170895 118.800605,120.208445 C117.841291,121.245996 116.719297,122.072939 115.436487,122.689275 C114.425016,123.174291 113.367598,123.461089 112.266095,123.564534 L112.266095,100.602765 C113.381879,100.701874 114.44799,100.988672 115.460703,101.480502 C116.72799,102.096838 117.841291,102.923781 118.800605,103.961332 C119.758676,105.000121 120.522402,106.224121 121.09116,107.633951 C121.659918,109.044401 121.944918,110.528563 121.944918,112.084579 C121.944918,113.641215 121.659918,115.125377 121.09116,116.535826 L121.09116,116.535826 Z M111.024265,123.594887 C109.719722,123.550907 108.474167,123.265348 107.292565,122.713433 C106.008513,122.113822 104.894592,121.295551 103.952042,120.256761 C103.008873,119.219211 102.261912,118.003263 101.709918,116.608919 C101.156062,115.214575 100.880376,113.738466 100.880376,112.182449 C100.880376,110.593603 101.164134,109.093336 101.734134,107.682887 C102.30165,106.272437 103.065997,105.039765 104.02531,103.986109 C104.984624,102.932453 106.098546,102.096838 107.365833,101.480502 C108.517631,100.921773 109.738971,100.628781 111.024265,100.577368 L111.024265,123.594887 Z M123.651193,112.134134 C123.651193,110.350785 123.334526,108.664069 122.700572,107.075223 C122.067239,105.486377 121.196716,104.091413 120.092108,102.891571 C118.986879,101.692348 117.686062,100.743996 116.19152,100.045895 C114.950931,99.4679636 113.64018,99.144 112.266095,99.0455101 L112.266095,92.9626761 L111.024265,92.9626761 L111.024265,99.0213522 C109.48067,99.0709069 108.022761,99.4035425 106.658611,100.045895 C105.17835,100.743996 103.886846,101.692348 102.782239,102.891571 C101.67701,104.091413 100.807729,105.486377 100.173775,107.075223 C99.5391993,108.664069 99.2225327,110.350785 99.2225327,112.134134 C99.2225327,113.884652 99.5305065,115.555263 100.148938,117.14349 C100.766748,118.732955 101.627337,120.119247 102.733807,121.302364 C103.838415,122.486721 105.129918,123.42702 106.61018,124.123883 C107.975572,124.767474 109.450245,125.100109 111.024265,125.149664 L111.024265,129.556931 L112.266095,129.556931 L112.266095,125.124887 C113.64018,125.026397 114.950931,124.701814 116.19152,124.123883 C117.686062,123.42702 118.986879,122.486721 120.092108,121.302364 C121.196716,120.119247 122.067239,118.732955 122.700572,117.14349 C123.334526,115.555263 123.651193,113.884652 123.651193,112.134134 L123.651193,112.134134 Z" id="Fill-9" fill="#FFFFFF"></path>
                <path d="M135.573507,123.880693 C135.069324,123.962458 134.638408,124.002102 134.280761,124.002102 C133.305925,124.002102 132.526056,123.727074 131.939912,123.175159 C131.355631,122.624483 131.06318,121.879304 131.06318,120.937766 L131.06318,89.1744704 L130.087101,89.1744704 L130.087101,120.937766 C130.087101,122.138228 130.444748,123.102685 131.160663,123.832377 C131.874716,124.56207 132.801121,124.926296 133.939879,124.926296 C134.39501,124.926296 134.955075,124.869928 135.621938,124.756572 C136.287559,124.642596 136.848245,124.505701 137.303997,124.34279 L136.961873,123.564782 C136.540271,123.694244 136.077069,123.800167 135.573507,123.880693" id="Fill-11" fill="#FFFFFF"></path>
                <path d="M157.538376,117.727553 C157.538376,118.376719 157.294356,119.040752 156.806938,119.722128 C155.928964,121.083643 154.589029,122.170748 152.78465,122.980966 C150.97965,123.791804 148.988376,124.196914 146.812069,124.196914 C145.804324,124.196914 144.860533,124.02657 143.983801,123.686501 C143.105827,123.345813 142.34148,122.86761 141.692003,122.251274 C141.041905,121.636177 140.528408,120.913918 140.15648,120.086974 C139.781448,119.260031 139.595173,118.376719 139.595173,117.4358 C139.595173,116.495501 139.821807,115.6444 140.277559,114.881877 C140.73269,114.120594 141.375337,113.463375 142.203637,112.91208 C143.03318,112.360784 144.023539,111.93895 145.178441,111.647197 C146.33148,111.355444 147.622984,111.209877 149.054193,111.209877 C152.109095,111.209877 154.937363,111.712857 157.538376,112.717578 L157.538376,117.727553 Z M158.513212,122.738149 L158.513212,108.777363 C158.513212,107.286387 158.294029,105.940359 157.855042,104.739898 C157.417297,103.540675 156.798866,102.51923 156.002853,101.675562 C155.204977,100.832513 154.230141,100.184586 153.07648,99.7299219 C151.922199,99.2764968 150.646219,99.0491648 149.24916,99.0491648 C146.648147,99.0491648 143.723016,100.151756 140.473147,102.356938 L141.057428,103.134327 C142.488637,102.129606 143.902461,101.359031 145.29952,100.82446 C146.696578,100.28927 148.013539,100.021675 149.24916,100.021675 C150.48416,100.021675 151.614225,100.232902 152.637493,100.654736 C153.662624,101.07595 154.539356,101.667509 155.270794,102.429412 C156.002853,103.191934 156.563539,104.115509 156.954095,105.201995 C157.343408,106.2891 157.538376,107.480889 157.538376,108.777363 L157.538376,111.647197 C156.335663,111.193153 154.987036,110.845031 153.491252,110.601594 C151.996088,110.358776 150.516448,110.236748 149.054193,110.236748 C147.526121,110.236748 146.120369,110.415145 144.836317,110.771938 C143.552265,111.129351 142.447036,111.623039 141.520631,112.255481 C140.594225,112.887922 139.880173,113.641153 139.375369,114.517031 C138.871186,115.39229 138.619716,116.36542 138.619716,117.4358 C138.619716,118.506181 138.830827,119.511521 139.254291,120.451201 C139.675892,121.39274 140.253343,122.211011 140.984781,122.907873 C141.716219,123.605355 142.5855,124.156651 143.593245,124.56176 C144.60099,124.967489 145.67331,125.170043 146.812069,125.170043 C149.021284,125.170043 151.069683,124.756881 152.955402,123.929938 C154.839879,123.102995 156.367951,121.927311 157.538376,120.402885 L157.538376,122.738149 C157.538376,123.159983 157.635239,123.540315 157.830827,123.881003 C158.025794,124.221072 158.285337,124.457076 158.611938,124.585918 C158.708801,124.651578 158.935435,124.683169 159.293082,124.683169 L159.293082,123.710659 C158.772755,123.710659 158.513212,123.387315 158.513212,122.738149 L158.513212,122.738149 Z" id="Fill-13" fill="#FFFFFF"></path>
                <path d="M187.670948,116.535826 C187.117712,117.979105 186.346536,119.268146 185.354935,120.402947 C184.363954,121.538368 183.176765,122.45451 181.795229,123.151372 C180.413693,123.848854 178.910458,124.196976 177.284902,124.196976 C176.310065,124.196976 175.253889,123.99504 174.116373,123.589312 C172.977614,123.183583 171.92268,122.632907 170.947222,121.935425 C169.971144,121.238563 169.150294,120.427105 168.484673,119.502911 C167.81719,118.578717 167.452092,117.598154 167.386895,116.559984 L167.386895,107.366356 C167.875556,106.393846 168.460458,105.469652 169.142843,104.594393 C169.82585,103.718514 170.597026,102.940506 171.459477,102.25913 C172.320065,101.578372 173.279379,101.035749 174.335556,100.629401 C175.392353,100.224911 176.521176,100.021737 177.723889,100.021737 C179.316536,100.021737 180.771961,100.362425 182.088922,101.043182 C183.404641,101.723939 184.542157,102.623976 185.501471,103.742672 C186.459542,104.861368 187.199052,106.150409 187.719379,107.609794 C188.239706,109.069178 188.50049,110.576879 188.50049,112.134134 C188.50049,113.625729 188.224183,115.093166 187.670948,116.535826 M188.67,107.463607 C188.13415,105.907591 187.370425,104.505194 186.379444,103.256417 C185.387222,102.008259 184.160294,100.994247 182.697418,100.216239 C181.235163,99.4376113 179.57732,99.0492267 177.723889,99.0492267 C175.513431,99.0492267 173.563137,99.6407854 171.873007,100.824522 C170.182255,102.008259 168.687092,103.507907 167.386895,105.323466 L167.386895,89.1742227 L166.412059,89.1742227 L166.412059,124.683231 L167.386895,124.683231 L167.386895,119.429818 C167.875556,120.240656 168.484673,120.994506 169.21549,121.691988 C169.946928,122.38947 170.743562,122.997753 171.604771,123.516219 C172.46598,124.034684 173.376863,124.440413 174.335556,124.731547 C175.293627,125.023919 176.277157,125.169486 177.284902,125.169486 C179.008562,125.169486 180.609281,124.812692 182.088922,124.099725 C183.56732,123.387377 184.858824,122.430352 185.964673,121.229891 C187.069281,120.030668 187.93049,118.643757 188.548922,117.070397 C189.166111,115.498275 189.475327,113.853061 189.475327,112.134134 C189.475327,110.576879 189.207712,109.020243 188.67,107.463607" id="Fill-15" fill="#FFFFFF"></path>
                <mask id="mask-2" fill="white">
                    <use xlink:href="#path-1"></use>
                </mask>
                <g id="Clip-18"></g>
                <polygon id="Fill-17" fill="#FFFFFF" mask="url(#mask-2)" points="56.0096405 152.480915 56.9031373 152.480915 56.9031373 140.216757 56.0096405 140.216757"></polygon>
                <polygon id="Fill-19" fill="#FFFFFF" mask="url(#mask-2)" points="58.9723366 140.970793 63.3150163 140.970793 63.3150163 152.481101 64.2103758 152.481101 64.2103758 140.970793 68.5288399 140.970793 68.5288399 140.216943 58.9723366 140.216943"></polygon>
                <path d="M80.6049542,150.830311 C80.3379608,151.058263 80.0486144,151.255243 79.7356732,151.419392 C79.422732,151.584162 79.0855752,151.713004 78.7242026,151.80468 C78.3615882,151.897595 77.9747582,151.944052 77.5637124,151.944052 C77.2395948,151.944052 76.9111307,151.888923 76.5776993,151.778664 C76.2455098,151.669024 75.9418824,151.503016 75.6705425,151.281259 C75.3973399,151.058263 75.1756732,150.782615 75.0055425,150.453077 C74.8347908,150.123538 74.7484837,149.736392 74.7484837,149.291639 C74.7484837,148.950951 74.8068497,148.621413 74.9223399,148.303643 C75.038451,147.985874 75.2036144,147.688546 75.4178301,147.410421 C75.6314248,147.133534 75.8946928,146.882044 76.2039085,146.65719 C76.514366,146.431097 76.8602157,146.240931 77.2420784,146.084834 L77.3376993,146.180226 L81.3252157,150.08885 C81.1116209,150.354587 80.8707059,150.60174 80.6049542,150.830311 M83.0799216,148.299307 C83.2717843,147.723854 83.3736144,147.165125 83.3847908,146.621882 L82.9066863,146.621882 C82.8377647,146.621882 82.7856078,146.643562 82.7502157,146.687542 C82.7160654,146.730283 82.6918497,146.789749 82.6812941,146.8647 C82.6353464,147.286534 82.5353791,147.721376 82.3851176,148.169226 C82.2348562,148.617077 82.0299542,149.048821 81.7691699,149.465081 L77.8847255,145.659902 C77.3755752,145.163736 76.9993007,144.698542 76.755902,144.264319 C76.5118824,143.831336 76.3908039,143.377911 76.3908039,142.904044 C76.3908039,142.585655 76.4479281,142.294522 76.5603137,142.028166 C76.6733203,141.762429 76.8310327,141.533238 77.033451,141.339356 C77.2358693,141.146093 77.4798889,140.99557 77.7636471,140.888409 C78.0474052,140.781866 78.3628301,140.727975 78.7105425,140.727975 C79.0526667,140.727975 79.3507059,140.787441 79.605902,140.906372 C79.8604771,141.024684 80.0746928,141.170251 80.248549,141.344311 C80.4217843,141.517133 80.5565229,141.702344 80.6521438,141.898704 C80.7477647,142.094445 80.8098562,142.271603 80.8390392,142.4277 C80.8682222,142.507607 80.906719,142.564595 80.9563922,142.596186 C81.0054444,142.628396 81.0594641,142.637688 81.1165882,142.626538 L81.586,142.531765 C81.5748235,142.207801 81.4928627,141.896846 81.3388758,141.599518 C81.1848889,141.30157 80.9799869,141.04017 80.7210654,140.815315 C80.4640065,140.589842 80.161,140.410826 79.8145294,140.277647 C79.4661961,140.145089 79.0986144,140.078809 78.7105425,140.078809 C78.2411307,140.078809 77.8170458,140.150664 77.4370458,140.294991 C77.0589085,140.439939 76.7329281,140.638777 76.4609673,140.893364 C76.1883856,141.147332 75.9785163,141.446518 75.8307386,141.789684 C75.6823399,142.134089 75.608451,142.507607 75.608451,142.912716 C75.608451,143.410121 75.710281,143.874696 75.9126993,144.308299 C76.1157386,144.741283 76.4261961,145.191611 76.8428301,145.659902 C76.4261961,145.816 76.0381242,146.017935 75.6786144,146.266947 C75.3197255,146.51534 75.009268,146.796562 74.7484837,147.111854 C74.4876993,147.427145 74.2827974,147.773409 74.1325359,148.151882 C73.9810327,148.530356 73.905902,148.928032 73.905902,149.343672 C73.905902,149.863376 74.0089739,150.327332 74.2151176,150.734919 C74.4200196,151.141886 74.6894967,151.486291 75.0229281,151.766275 C75.3551176,152.046259 75.7332549,152.258724 76.156719,152.403052 C76.5789412,152.54738 77.0079935,152.619854 77.4420131,152.619854 C77.8996275,152.619854 78.3373725,152.567821 78.7546275,152.463757 C79.1712614,152.359692 79.561817,152.215364 79.926915,152.030153 C80.2920131,151.845562 80.6304118,151.627522 80.9433529,151.376032 C81.2562941,151.125162 81.5400523,150.848894 81.7946275,150.548469 L83.5760327,152.290315 C83.6623399,152.371461 83.7399542,152.423494 83.8063922,152.446413 C83.8722092,152.469332 83.9578954,152.481101 84.0622092,152.481101 L84.8358693,152.481101 L82.2553464,149.950097 C82.6142353,149.424198 82.8899216,148.874141 83.0799216,148.299307" id="Fill-20" fill="#FFFFFF" mask="url(#mask-2)"></path>
                <path d="M102.989376,140.243083 C102.939703,140.260427 102.892513,140.306885 102.845324,140.381836 L98.0232974,148.90214 C97.9773497,148.982047 97.9332647,149.067528 97.8935261,149.157346 C97.8525458,149.246545 97.8146699,149.338221 97.7805196,149.430516 C97.7165654,149.245306 97.6414346,149.071864 97.5551275,148.910192 L92.5940163,140.381836 C92.5480686,140.306885 92.5002582,140.260427 92.4543105,140.243083 C92.4083627,140.225739 92.3437876,140.217067 92.2643105,140.217067 L91.6465,140.217067 L91.6465,152.481225 L92.4288529,152.481225 L92.4288529,142.028289 C92.4288529,141.872812 92.420781,141.707423 92.4021536,141.534601 L97.3719575,150.123662 C97.4532974,150.273565 97.5687876,150.348516 97.7202908,150.348516 L97.858134,150.348516 C98.0090163,150.348516 98.1251275,150.273565 98.2064673,150.123662 L103.045258,141.551326 C103.027873,141.719812 103.019801,141.878387 103.019801,142.028289 L103.019801,152.481225 L103.792219,152.481225 L103.792219,140.217067 L103.184343,140.217067 C103.103624,140.217067 103.037807,140.225739 102.989376,140.243083" id="Fill-21" fill="#FFFFFF" mask="url(#mask-2)"></path>
                <path d="M111.568807,150.565937 C111.366389,150.773447 111.160245,150.96733 110.951618,151.146346 C110.74299,151.325982 110.51884,151.480221 110.278546,151.610302 C110.038252,151.740383 109.777467,151.84135 109.496193,151.913824 C109.21616,151.985678 108.906944,152.022225 108.571029,152.022225 C108.345637,152.022225 108.128317,151.990014 107.91969,151.926213 C107.711062,151.86303 107.52665,151.763302 107.367696,151.627646 C107.209363,151.49137 107.081454,151.318549 106.985833,151.107322 C106.890212,150.896095 106.843023,150.646464 106.843023,150.357808 C106.843023,150.051188 106.934918,149.778638 107.120572,149.538917 C107.306225,149.298577 107.591225,149.092306 107.976814,148.918864 C108.36116,148.746043 108.851062,148.608528 109.444036,148.507561 C110.038252,148.406593 110.746716,148.340933 111.568807,148.31182 L111.568807,150.565937 Z M111.68616,144.56363 C111.457042,144.289221 111.168317,144.077994 110.821846,143.930569 C110.473513,143.783763 110.068676,143.710051 109.605474,143.710051 C108.973382,143.710051 108.409592,143.825265 107.910997,144.056314 C107.413023,144.287362 106.938644,144.62867 106.485997,145.079617 L106.634395,145.330488 C106.663578,145.376945 106.697108,145.414731 106.738709,145.443225 C106.778448,145.472338 106.830605,145.486585 106.89518,145.486585 C106.980866,145.486585 107.088905,145.428978 107.216193,145.313763 C107.34348,145.197929 107.508644,145.070945 107.711062,144.931573 C107.91348,144.793439 108.161225,144.666455 108.454297,144.550621 C108.746748,144.435407 109.10067,144.37718 109.517925,144.37718 C110.195964,144.37718 110.707598,144.592123 111.052206,145.023249 C111.396814,145.453136 111.568807,146.066994 111.568807,146.864204 L111.568807,147.766099 C110.590245,147.789638 109.750768,147.870164 109.05348,148.008917 C108.354951,148.14767 107.783709,148.332881 107.337892,148.563929 C106.891454,148.794978 106.564853,149.066289 106.356225,149.378484 C106.148219,149.690059 106.043905,150.028269 106.043905,150.392496 C106.043905,150.785217 106.107859,151.121569 106.238873,151.402172 C106.368644,151.682775 106.543121,151.911966 106.760441,152.090982 C106.977141,152.269998 107.224886,152.403176 107.502435,152.489277 C107.779984,152.576617 108.067467,152.619358 108.362402,152.619358 C108.716324,152.619358 109.040441,152.585289 109.335997,152.515294 C109.630931,152.446536 109.905997,152.348047 110.160572,152.221063 C110.41701,152.094079 110.660408,151.937982 110.895735,151.752771 C111.12982,151.56818 111.366389,151.360051 111.604199,151.129002 L111.725278,152.238407 C111.765016,152.400079 111.873056,152.481225 112.046912,152.481225 L112.376618,152.481225 L112.376618,146.864204 C112.376618,146.385383 112.318252,145.95054 112.202761,145.560298 C112.08665,145.170055 111.914657,144.838038 111.68616,144.56363 L111.68616,144.56363 Z" id="Fill-22" fill="#FFFFFF" mask="url(#mask-2)"></path>
                <path d="M118.93615,151.36321 C118.896412,151.36321 118.840529,151.393562 118.770987,151.453647 C118.702065,151.514351 118.612654,151.58125 118.502131,151.653724 C118.391608,151.725578 118.261837,151.791857 118.111575,151.852562 C117.960072,151.913886 117.780627,151.943619 117.572,151.943619 C117.404353,151.943619 117.247882,151.918222 117.10383,151.866189 C116.957915,151.814157 116.831869,151.733011 116.725072,151.623372 C116.617654,151.513113 116.53383,151.373121 116.47298,151.202777 C116.412752,151.032432 116.382327,150.828639 116.382327,150.592015 L116.382327,144.741469 L119.109386,144.741469 L119.109386,144.125752 L116.382327,144.125752 L116.382327,140.832226 L115.991771,140.832226 C115.927196,140.832226 115.877523,140.852667 115.843993,140.89355 C115.808601,140.933194 115.785627,140.979651 115.773209,141.031683 L115.564582,144.1177 L114.088667,144.221145 L114.088667,144.542011 C114.088667,144.605813 114.108536,144.654748 114.149516,144.689436 C114.189255,144.723505 114.241412,144.741469 114.305987,144.741469 L115.547817,144.741469 L115.547817,150.634756 C115.547817,151.311177 115.711739,151.81106 116.038961,152.134404 C116.366183,152.458368 116.822556,152.61942 117.406837,152.61942 C117.771935,152.61942 118.123373,152.545708 118.463013,152.398902 C118.801412,152.251477 119.080203,152.056355 119.301248,151.814157 L119.075856,151.44993 C119.028046,151.392323 118.982098,151.36321 118.93615,151.36321" id="Fill-23" fill="#FFFFFF" mask="url(#mask-2)"></path>
                <path d="M127.075912,144.59423 C126.839343,144.311149 126.53882,144.093728 126.177448,143.943825 C125.814833,143.793922 125.396337,143.718351 124.921958,143.718351 C124.284278,143.718351 123.70931,143.862679 123.197676,144.151954 C122.684801,144.44123 122.228428,144.827756 121.828559,145.313391 L121.828559,139.870432 L120.995291,139.870432 L120.995291,152.480853 L121.828559,152.480853 L121.828559,145.998485 C122.211663,145.489311 122.646925,145.092254 123.136827,144.806695 C123.625487,144.520517 124.152023,144.376809 124.71333,144.376809 C125.471467,144.376809 126.0365,144.607238 126.407807,145.066238 C126.777873,145.525857 126.962905,146.159537 126.962905,146.968517 L126.962905,152.480853 L127.797415,152.480853 L127.797415,146.968517 C127.797415,146.465537 127.736565,146.015209 127.615487,145.616294 C127.493167,145.217999 127.313722,144.877311 127.075912,144.59423" id="Fill-24" fill="#FFFFFF" mask="url(#mask-2)"></path>
                <path d="M134.934399,148.459617 C134.71149,148.29175 134.455673,148.151758 134.165706,148.039021 C133.875739,147.926904 133.582046,147.824078 133.284007,147.731163 C132.985346,147.639487 132.692275,147.546572 132.402307,147.454277 C132.11234,147.361981 131.856523,147.252341 131.633614,147.124738 C131.410085,146.997754 131.229399,146.844754 131.090314,146.665738 C130.95185,146.486102 130.881686,146.260629 130.881686,145.989317 C130.881686,145.769418 130.931359,145.56005 131.029464,145.361212 C131.127569,145.161754 131.268516,144.987074 131.451686,144.836552 C131.633614,144.68603 131.854039,144.566479 132.111098,144.476661 C132.369399,144.387463 132.654399,144.342864 132.96734,144.342864 C133.314431,144.342864 133.609987,144.378791 133.852765,144.450645 C134.096163,144.523738 134.300444,144.603645 134.466229,144.693463 C134.631392,144.783281 134.762405,144.863807 134.86051,144.9369 C134.959856,145.008754 135.039954,145.044681 135.103908,145.044681 C135.191458,145.044681 135.257895,145.004418 135.304464,144.923272 L135.477699,144.637094 C135.141784,144.3249 134.769235,144.093851 134.361915,143.943949 C133.953353,143.794046 133.485183,143.718475 132.958647,143.718475 C132.518418,143.718475 132.121033,143.782277 131.767732,143.90926 C131.415052,144.036244 131.115771,144.207208 130.869268,144.420293 C130.623386,144.634617 130.432765,144.883009 130.299268,145.16609 C130.165771,145.449171 130.100575,145.743402 130.100575,146.050021 C130.100575,146.408054 130.169497,146.70724 130.309203,146.94758 C130.447046,147.186681 130.630216,147.390475 130.856229,147.558341 C131.081621,147.725588 131.337438,147.864341 131.624922,147.973981 C131.911163,148.08424 132.205477,148.185208 132.506621,148.277503 C132.807144,148.369799 133.102078,148.462714 133.38832,148.55439 C133.675804,148.647305 133.931621,148.760042 134.157013,148.8926 C134.382405,149.025779 134.565575,149.187451 134.705281,149.378236 C134.843745,149.569021 134.912667,149.808742 134.912667,150.098017 C134.912667,150.35756 134.865477,150.604714 134.769235,150.83886 C134.673614,151.073005 134.533908,151.276179 134.348876,151.449621 C134.163222,151.623062 133.931621,151.760576 133.653451,151.861544 C133.37466,151.962511 133.053647,152.012685 132.688549,152.012685 C132.300477,152.012685 131.975118,151.966847 131.712471,151.874552 C131.447961,151.781637 131.225673,151.682528 131.046229,151.575366 C130.866784,151.468204 130.723974,151.368475 130.617176,151.276179 C130.509137,151.183884 130.418484,151.137426 130.342732,151.137426 C130.28002,151.137426 130.229105,151.149196 130.191229,151.172115 C130.153974,151.195653 130.119824,151.230341 130.090641,151.276179 L129.900641,151.57103 C130.247111,151.882604 130.641392,152.135953 131.081621,152.329216 C131.52185,152.523098 132.045902,152.61973 132.654399,152.61973 C133.140575,152.61973 133.572732,152.550353 133.948386,152.4116 C134.325902,152.272847 134.641948,152.085779 134.900248,151.848536 C135.157307,151.611912 135.352895,151.331309 135.486392,151.007345 C135.619889,150.684001 135.686327,150.334641 135.686327,149.959264 C135.686327,149.611762 135.617405,149.317532 135.477699,149.074714 C135.337993,148.832515 135.157307,148.627483 134.934399,148.459617" id="Fill-25" fill="#FFFFFF" mask="url(#mask-2)"></path>
                <path d="M45.6942549,9.18030972 L116.230824,16.4090951 L99.6145163,70.8386903 L45.6942549,9.18030972 Z M90.2573268,1.56066194 L148.040301,5.95306275 L117.173993,14.9472328 L50.1642222,8.08329352 L90.2573268,1.56066194 Z M101.905072,68.639083 L117.86383,16.3595405 L150.256967,6.91937854 L101.905072,68.639083 Z M153.851444,4.83746356 L90.2827843,0.00588461538 L90.1890261,0.000309716599 L42.3667712,7.77977126 L100.042327,73.6385283 L153.851444,4.83746356 Z" id="Fill-26" fill="#FFFFFF" mask="url(#mask-2)"></path>
            </g>
        </g>
    </g>
</svg>