<?xml version="1.0" encoding="utf-8"?>
<!-- Generator: Adobe Illustrator 24.0.2, SVG Export Plug-In . SVG Version: 6.00 Build 0)  -->
<svg version="1.1" id="Capa_1" xmlns="http://www.w3.org/2000/svg" xmlns:xlink="http://www.w3.org/1999/xlink" x="0px" y="0px"
	 viewBox="0 0 190 129.6" style="enable-background:new 0 0 190 129.6;" xml:space="preserve">
<style type="text/css">
	.st0{fill-rule:evenodd;clip-rule:evenodd;fill:#FFFFFF;}
	.st1{filter:url(#Adobe_OpacityMaskFilter);}
	.st2{mask:url(#mask-2_9_);fill-rule:evenodd;clip-rule:evenodd;fill:#FFFFFF;}
</style>
<title>Group 27 Copy</title>
<desc>Created with Sketch.</desc>
<g id="Artboard" transform="translate(-473.000000, -124.000000)">
	<g id="Group-27-Copy" transform="translate(473.000000, 124.000000)">
		<path id="Fill-1" class="st0" d="M18.7,117.6c0,0.6-0.3,1.3-0.8,1.9c-0.8,1.3-2.1,2.3-3.8,3.1c-1.7,0.8-3.6,1.1-5.6,1.1
			c-1,0-1.9-0.2-2.7-0.5c-0.8-0.3-1.6-0.8-2.2-1.4c-0.6-0.6-1.1-1.3-1.4-2c-0.4-0.8-0.5-1.6-0.5-2.5c0-1.8,0.8-3.3,2.5-4.4
			c1.6-1.1,3.8-1.6,6.5-1.6c2.9,0,5.6,0.5,8.1,1.5V117.6z M20.4,122.1v-13.2c0-3-0.9-5.4-2.6-7.2c-1.7-1.8-4-2.6-7-2.6
			c-2.7,0-5.7,1.1-9,3.3l0.8,1.2c1.4-1,2.8-1.8,4.2-2.3c1.4-0.5,2.7-0.8,3.9-0.8c2.4,0,4.4,0.8,5.8,2.3c1.4,1.5,2.2,3.5,2.2,6.1v2.7
			c-1.1-0.5-2.4-0.8-3.9-1c-1.5-0.2-2.9-0.3-4.3-0.3c-1.6,0-3,0.2-4.3,0.5c-1.3,0.4-2.4,0.9-3.3,1.5c-0.9,0.6-1.7,1.4-2.2,2.3
			c-0.5,0.9-0.8,1.9-0.8,2.9c0,1.1,0.2,2.1,0.6,3.1c0.4,0.9,1,1.8,1.8,2.5c0.7,0.7,1.6,1.2,2.6,1.7c1,0.4,2.1,0.6,3.3,0.6
			c2.1,0,4.2-0.4,6-1.2c1.9-0.8,3.4-2,4.5-3.5v2.2c0,0.6,0.2,1.1,0.6,1.5c0.4,0.4,0.9,0.6,1.4,0.6c0.2,0,0.3,0,0.4,0v-1.6
			C20.7,123.1,20.4,122.8,20.4,122.1L20.4,122.1z"/>
		<path id="Fill-3" class="st0" d="M48.4,122.1V99.4h-1.7v16.1c-0.4,1.2-0.9,2.3-1.6,3.3c-0.7,1-1.5,1.9-2.4,2.6
			c-0.9,0.7-1.9,1.3-3,1.7c-1.1,0.4-2.2,0.6-3.4,0.6c-4.6,0-6.8-3.3-6.8-10V99.4h-1.7v14.4c0,3.8,0.7,6.6,2,8.5
			c1.4,1.9,3.4,2.9,6.1,2.9c2.3,0,4.4-0.6,6.3-1.8c2-1.2,3.5-2.8,4.6-4.9v4.2c0,0.5,0.2,1,0.6,1.4c0.4,0.5,0.8,0.7,1.4,0.7H49
			c0.1,0,0.2,0,0.3,0v-1.6C48.7,123.1,48.4,122.8,48.4,122.1"/>
		<path id="Fill-5" class="st0" d="M61.6,103.2c1.7-1.4,3.8-2.1,6.1-2.2v-1.6c-0.2,0-0.4,0-0.7,0c-0.3,0-0.6,0-0.9,0
			c-1.7,0.2-3.2,0.9-4.7,2c-1.5,1.1-2.6,2.6-3.5,4.4v-6.4h-1.6v25.3H58v-15.9C58.7,106.4,59.9,104.5,61.6,103.2"/>
		<path id="Fill-7" class="st0" d="M73.6,107c0.6-1.3,1.3-2.5,2.3-3.5c0.9-1,2-1.7,3.3-2.3c1.2-0.6,2.6-0.8,4-0.8
			c1.4,0,2.8,0.3,4,0.8c1.2,0.5,2.3,1.3,3.3,2.3c1,1,1.7,2.1,2.3,3.5c0.6,1.3,0.9,2.8,1,4.4H72.6C72.6,109.8,73,108.4,73.6,107
			 M93.5,119l-1.5-0.4c-0.4,0.7-0.8,1.4-1.4,2.1c-0.6,0.6-1.3,1.2-2,1.6c-0.8,0.5-1.6,0.8-2.5,1c-0.9,0.2-1.8,0.4-2.8,0.4
			c-1.4,0-2.7-0.3-3.9-0.9c-1.2-0.6-2.3-1.3-3.3-2.3c-1-1-1.7-2.1-2.4-3.5c-0.6-1.3-1-2.8-1.1-4.4h22.7c0,0,0-0.1,0-0.3
			c0-0.2,0-0.3,0-0.4c0-1.8-0.3-3.5-1-5.1c-0.7-1.6-1.5-3-2.6-4.2c-1.1-1.2-2.4-2.1-3.9-2.8c-1.5-0.7-3.1-1-4.8-1
			c-1.7,0-3.3,0.3-4.8,1c-1.5,0.7-2.7,1.6-3.9,2.8c-1.1,1.2-2,2.5-2.6,4.1c-0.6,1.6-0.9,3.2-0.9,5c0,1.8,0.3,3.5,1,5.1
			c0.6,1.6,1.5,3,2.6,4.2c1.1,1.2,2.4,2.2,3.9,2.9c1.5,0.7,3.1,1,4.8,1c1.1,0,2.2-0.2,3.3-0.5c1.1-0.3,2.1-0.7,3-1.3
			c0.9-0.5,1.7-1.2,2.4-1.9C92.6,120.7,93.2,119.9,93.5,119"/>
		<path id="Fill-9" class="st0" d="M121.1,116.5c-0.6,1.4-1.3,2.6-2.3,3.7c-1,1-2.1,1.9-3.4,2.5c-1,0.5-2.1,0.8-3.2,0.9v-23
			c1.1,0.1,2.2,0.4,3.2,0.9c1.3,0.6,2.4,1.4,3.3,2.5c1,1,1.7,2.3,2.3,3.7c0.6,1.4,0.9,2.9,0.9,4.5
			C121.9,113.6,121.7,115.1,121.1,116.5L121.1,116.5z M111,123.6c-1.3,0-2.6-0.3-3.7-0.9c-1.3-0.6-2.4-1.4-3.3-2.5
			c-0.9-1-1.7-2.3-2.2-3.6c-0.6-1.4-0.8-2.9-0.8-4.4c0-1.6,0.3-3.1,0.9-4.5c0.6-1.4,1.3-2.6,2.3-3.7c1-1.1,2.1-1.9,3.3-2.5
			c1.2-0.6,2.4-0.9,3.7-0.9V123.6z M123.7,112.1c0-1.8-0.3-3.5-1-5.1c-0.6-1.6-1.5-3-2.6-4.2c-1.1-1.2-2.4-2.1-3.9-2.8
			c-1.2-0.6-2.6-0.9-3.9-1V93H111V99c-1.5,0-3,0.4-4.4,1c-1.5,0.7-2.8,1.6-3.9,2.8c-1.1,1.2-2,2.6-2.6,4.2c-0.6,1.6-1,3.3-1,5.1
			c0,1.8,0.3,3.4,0.9,5c0.6,1.6,1.5,3,2.6,4.2c1.1,1.2,2.4,2.1,3.9,2.8c1.4,0.6,2.8,1,4.4,1v4.4h1.2v-4.4c1.4-0.1,2.7-0.4,3.9-1
			c1.5-0.7,2.8-1.6,3.9-2.8c1.1-1.2,2-2.6,2.6-4.2C123.3,115.6,123.7,113.9,123.7,112.1L123.7,112.1z"/>
		<path id="Fill-11" class="st0" d="M135.6,123.9c-0.5,0.1-0.9,0.1-1.3,0.1c-1,0-1.8-0.3-2.3-0.8c-0.6-0.6-0.9-1.3-0.9-2.2V89.2h-1
			v31.8c0,1.2,0.4,2.2,1.1,2.9c0.7,0.7,1.6,1.1,2.8,1.1c0.5,0,1-0.1,1.7-0.2c0.7-0.1,1.2-0.3,1.7-0.4l-0.3-0.8
			C136.5,123.7,136.1,123.8,135.6,123.9"/>
		<path id="Fill-13" class="st0" d="M157.5,117.7c0,0.6-0.2,1.3-0.7,2c-0.9,1.4-2.2,2.4-4,3.3c-1.8,0.8-3.8,1.2-6,1.2
			c-1,0-2-0.2-2.8-0.5c-0.9-0.3-1.6-0.8-2.3-1.4c-0.7-0.6-1.2-1.3-1.5-2.2c-0.4-0.8-0.6-1.7-0.6-2.7c0-0.9,0.2-1.8,0.7-2.6
			c0.5-0.8,1.1-1.4,1.9-2c0.8-0.6,1.8-1,3-1.3c1.2-0.3,2.4-0.4,3.9-0.4c3.1,0,5.9,0.5,8.5,1.5V117.7z M158.5,122.7v-14
			c0-1.5-0.2-2.8-0.7-4c-0.4-1.2-1.1-2.2-1.9-3.1c-0.8-0.8-1.8-1.5-2.9-1.9c-1.2-0.5-2.4-0.7-3.8-0.7c-2.6,0-5.5,1.1-8.8,3.3
			l0.6,0.8c1.4-1,2.8-1.8,4.2-2.3c1.4-0.5,2.7-0.8,3.9-0.8c1.2,0,2.4,0.2,3.4,0.6c1,0.4,1.9,1,2.6,1.8c0.7,0.8,1.3,1.7,1.7,2.8
			c0.4,1.1,0.6,2.3,0.6,3.6v2.9c-1.2-0.5-2.6-0.8-4-1c-1.5-0.2-3-0.4-4.4-0.4c-1.5,0-2.9,0.2-4.2,0.5c-1.3,0.4-2.4,0.9-3.3,1.5
			c-0.9,0.6-1.6,1.4-2.1,2.3c-0.5,0.9-0.8,1.8-0.8,2.9s0.2,2.1,0.6,3c0.4,0.9,1,1.8,1.7,2.5c0.7,0.7,1.6,1.2,2.6,1.7
			c1,0.4,2.1,0.6,3.2,0.6c2.2,0,4.3-0.4,6.1-1.2c1.9-0.8,3.4-2,4.6-3.5v2.3c0,0.4,0.1,0.8,0.3,1.1c0.2,0.3,0.5,0.6,0.8,0.7
			c0.1,0.1,0.3,0.1,0.7,0.1v-1C158.8,123.7,158.5,123.4,158.5,122.7L158.5,122.7z"/>
		<path id="Fill-15" class="st0" d="M187.7,116.5c-0.6,1.4-1.3,2.7-2.3,3.9c-1,1.1-2.2,2.1-3.6,2.7c-1.4,0.7-2.9,1-4.5,1
			c-1,0-2-0.2-3.2-0.6c-1.1-0.4-2.2-1-3.2-1.7c-1-0.7-1.8-1.5-2.5-2.4c-0.7-0.9-1-1.9-1.1-2.9v-9.2c0.5-1,1.1-1.9,1.8-2.8
			c0.7-0.9,1.5-1.7,2.3-2.3c0.9-0.7,1.8-1.2,2.9-1.6c1.1-0.4,2.2-0.6,3.4-0.6c1.6,0,3,0.3,4.4,1c1.3,0.7,2.5,1.6,3.4,2.7
			c1,1.1,1.7,2.4,2.2,3.9c0.5,1.5,0.8,3,0.8,4.5C188.5,113.6,188.2,115.1,187.7,116.5 M188.7,107.5c-0.5-1.6-1.3-3-2.3-4.2
			c-1-1.2-2.2-2.3-3.7-3c-1.5-0.8-3.1-1.2-5-1.2c-2.2,0-4.2,0.6-5.9,1.8c-1.7,1.2-3.2,2.7-4.5,4.5V89.2h-1v35.5h1v-5.3
			c0.5,0.8,1.1,1.6,1.8,2.3c0.7,0.7,1.5,1.3,2.4,1.8c0.9,0.5,1.8,0.9,2.7,1.2c1,0.3,1.9,0.4,2.9,0.4c1.7,0,3.3-0.4,4.8-1.1
			c1.5-0.7,2.8-1.7,3.9-2.9c1.1-1.2,2-2.6,2.6-4.2c0.6-1.6,0.9-3.2,0.9-4.9C189.5,110.6,189.2,109,188.7,107.5"/>
		<g id="Clip-18">
		</g>
		<defs>
			<filter id="Adobe_OpacityMaskFilter" filterUnits="userSpaceOnUse" x="42.4" y="0" width="111.5" height="73.6">
				<feColorMatrix  type="matrix" values="1 0 0 0 0  0 1 0 0 0  0 0 1 0 0  0 0 0 1 0"/>
			</filter>
		</defs>
		<mask maskUnits="userSpaceOnUse" x="42.4" y="0" width="111.5" height="73.6" id="mask-2_9_">
			<g class="st1">
				<polygon id="path-1_9_" class="st0" points="0,152.6 189.5,152.6 189.5,0 0,0 				"/>
			</g>
		</mask>
		<path id="Fill-26" class="st2" d="M45.7,9.2l70.5,7.2L99.6,70.8L45.7,9.2z M90.3,1.6L148,6l-30.9,9l-67-6.9L90.3,1.6z M101.9,68.6
			l16-52.3l32.4-9.4L101.9,68.6z M153.9,4.8L90.3,0l-0.1,0L42.4,7.8L100,73.6L153.9,4.8z"/>
	</g>
</g>
</svg>
